<svg width="24" height="18" viewBox="0 0 24 18" fill="none" xmlns="http://www.w3.org/2000/svg">
<path d="M23.4693 2.92901L23.4993 3.12501C23.2093 2.09601 22.4263 1.30201 21.4313 1.01301L21.4103 1.00801C19.5393 0.500014 12.0103 0.500014 12.0103 0.500014C12.0103 0.500014 4.50029 0.490014 2.61029 1.00801C1.59629 1.30201 0.812294 2.09601 0.527294 3.10401L0.522294 3.12501C-0.176706 6.77601 -0.181706 11.163 0.553294 15.072L0.522294 14.874C0.812294 15.903 1.59529 16.697 2.59029 16.986L2.61129 16.991C4.48029 17.5 12.0113 17.5 12.0113 17.5C12.0113 17.5 19.5203 17.5 21.4113 16.991C22.4263 16.697 23.2103 15.903 23.4953 14.895L23.5003 14.874C23.8183 13.176 24.0003 11.222 24.0003 9.22601C24.0003 9.15301 24.0003 9.07901 23.9993 9.00501C24.0003 8.93701 24.0003 8.85601 24.0003 8.77501C24.0003 6.77801 23.8183 4.82401 23.4693 2.92901ZM9.60829 12.651V5.35801L15.8743 9.01001L9.60829 12.651Z" fill="white"/>
</svg>
